**** The.Time.Shifters.1999.DVDRiP.XViD.NORDIC-Zen_Bud ****

Format                           : AVI
File size                        : 1.27 GiB
Duration                         : 1h 27mn
Overall bit rate                 : 2 070 Kbps

Video

Format                           : MPEG-4 Visual
Codec ID/Hint                    : XviD
Duration                         : 1h 27mn
Bit rate                         : 1 929 Kbps
Width                            : 714 pixels
Height                           : 576 pixels
Display aspect ratio             : 4:3
Stream size                      : 1.19 GiB (93%)
Writing library                  : XviD 1.1.2 (UTC 2006-11-01)

Audio

Format                           : MPEG Audio
Codec ID/Hint                    : MP3
Duration                         : 1h 27mn
Bit rate                         : 128 Kbps
Channel(s)                       : 2 channels
Sampling rate                    : 48.0 KHz
Stream size                      : 80.6 MiB (6%)
Language                         : English

Text #1
Language                         : Danish

Text #2
Language                         : Swedish

Text #3
Language                         : Norwegian

Text #4
Language                         : Finnish


A reporter, learning of time travelers visiting 20th century disasters, tries to change the history they know by averting upcoming disasters. 